<?xml version="1.0" encoding="UTF-8" standalone="no"?>
<svg
   viewBox="0 0 23.575638 23.549"
   version="1.1"
   id="svg8"
   sodipodi:docname="securefusion.svg"
   inkscape:version="1.3 (0e150ed6c4, 2023-07-21)"
   width="23.575638"
   height="23.549"
   xml:space="preserve"
   inkscape:export-filename="securefusion-black-logo.png"
   inkscape:export-xdpi="960"
   inkscape:export-ydpi="960"
   xmlns:inkscape="http://www.inkscape.org/namespaces/inkscape"
   xmlns:sodipodi="http://sodipodi.sourceforge.net/DTD/sodipodi-0.dtd"
   xmlns:xlink="http://www.w3.org/1999/xlink"
   xmlns="http://www.w3.org/2000/svg"
   xmlns:svg="http://www.w3.org/2000/svg"
   xmlns:rdf="http://www.w3.org/1999/02/22-rdf-syntax-ns#"
   xmlns:cc="http://creativecommons.org/ns#"
   xmlns:dc="http://purl.org/dc/elements/1.1/"><defs
     id="defs8"><linearGradient
       id="SVGID_27_"
       gradientUnits="userSpaceOnUse"
       x1="1413.4695"
       y1="795.39221"
       x2="1786.6776"
       y2="715.63422">&#10;		<stop
   offset="0"
   style="stop-color:#00ffff;stop-opacity:1;"
   id="stop24" />&#10;		<stop
   offset="1"
   style="stop-color:#00bbcc;stop-opacity:1;"
   id="stop25" />&#10;	</linearGradient><clipPath
       id="SVGID_26_">&#10;		<use
   xlink:href="#SVGID_52_"
   style="overflow:visible"
   id="use24" />&#10;	</clipPath><path
       id="SVGID_52_"
       d="m 1463.38,859.59 c 0,0 70.32,2.12 91.89,-2.37 21.56,-4.49 1.35,-29.11 51.98,-39.09 50.63,-9.98 57.13,12.8 105.11,-30.58 47.97,-43.38 30.47,-99.87 89.52,-113.34 59.04,-13.47 68.16,-43.19 68.16,-43.19 0,0 -53.31,29.23 -83.18,22.75 -29.87,-6.48 -92.56,9.14 -108.17,35.57 -15.6,26.44 -59,37.93 -59,37.93 0,0 14.44,14.65 53.47,-10.45 39.03,-25.09 39.24,23.02 11.03,49.34 -28.22,26.32 -91.73,0.66 -122.15,26.48 -30.42,25.82 -70.94,27.55 -74.58,3.18 -3.63,-24.37 10.82,-47.74 41.85,-49.21 31.03,-1.47 46.04,-11.12 46.04,-11.12 0,0 -31.24,4.51 -48.94,-10.64 -17.69,-15.15 -107.31,20.56 -107.31,20.56 l -3.4,112.99 z" /><linearGradient
       inkscape:collect="always"
       xlink:href="#SVGID_27_"
       id="linearGradient55"
       gradientUnits="userSpaceOnUse"
       x1="1413.4695"
       y1="795.39221"
       x2="1786.6776"
       y2="715.63422" /></defs><sodipodi:namedview
     id="namedview8"
     pagecolor="#ffffff"
     bordercolor="#000000"
     borderopacity="0.25"
     inkscape:showpageshadow="2"
     inkscape:pageopacity="0.0"
     inkscape:pagecheckerboard="0"
     inkscape:deskcolor="#d1d1d1"
     inkscape:zoom="5.12"
     inkscape:cx="44.433594"
     inkscape:cy="8.1054688"
     inkscape:window-width="1920"
     inkscape:window-height="1009"
     inkscape:window-x="-8"
     inkscape:window-y="-8"
     inkscape:window-maximized="1"
     inkscape:current-layer="svg8"
     showguides="true"><sodipodi:guide
       position="-98.618492,23.937031"
       orientation="1,0"
       id="guide38"
       inkscape:locked="false" /><sodipodi:guide
       position="-75.058922,6.5542186"
       orientation="1,0"
       id="guide39"
       inkscape:locked="false" /></sodipodi:namedview><title
     id="title1">Artboard-1</title><metadata
     id="metadata9"><rdf:RDF><cc:Work
         rdf:about=""><dc:title>Artboard-1</dc:title></cc:Work></rdf:RDF></metadata><g
     id="g55"
     inkscape:label="logo-white"
     transform="translate(-0.49837494,1.0141407)"
     inkscape:export-filename=".\securefusion-white-logo.png"
     inkscape:export-xdpi="960"
     inkscape:export-ydpi="960"><g
       id="g46"
       inkscape:label="left-wing"><path
         style="display:inline;fill:#ff6600;fill-opacity:1;stroke:#5e3421;stroke-width:0.473;stroke-dasharray:none;stroke-opacity:1"
         d="m 7.2021485,10.473633 c 0,0 -2.734375,-1.0009767 -2.1484375,-3.3935548 C 5.6396485,4.6875 3.8330078,2.7832031 3.8330078,2.7832031 c 0,0 -0.9277344,1.6845703 -2.2460938,3.2958985 -1.31835935,1.6113281 0.9765626,4.2968754 0.9765626,4.2968754 0,0 0.380967,1.083368 -1.153893,2.376033 -1.53485999,1.292666 0.1257509,5.059003 0.3210635,5.27873 0.1953125,0.219726 0.613103,-2.576638 1.0281421,-2.869607 0.415039,-0.292969 0.6949333,-0.10062 0.6949333,-0.10062 0,0 -0.035754,-0.558562 0.4281136,-0.705046 0.4638672,-0.146485 0.8599079,0.019 0.8599079,0.019 0,0 -0.1649746,-0.812096 0.055471,-1.315905 0.2204452,-0.503809 0.5250511,-1.242156 2.0875512,-1.38864 1.5625,-0.146484 0.3173828,-1.196289 0.3173823,-1.196289 z"
         id="path45"
         sodipodi:nodetypes="cscsczsscsczsc" /><path
         style="display:inline;fill:#b04600;fill-opacity:0.820926;stroke:#5e3421;stroke-width:0;stroke-dasharray:none;stroke-opacity:1"
         d="m 5.8312015,10.646632 c 0,0 -2.012074,-1.3107467 -1.685547,-3.0432173 0.326527,-1.7324708 -0.2896397,-3.2578605 -0.2896397,-3.2578605 0,0 -0.7855557,1.0733163 -1.5202416,2.2400825 -0.7346859,1.166766 0.9104227,3.9902833 0.9104227,3.9902833 0,0 -0.6666038,1.883101 -1.5219395,2.819123 -0.85533576,0.936023 -0.00317,2.686672 0.1056777,2.845776 0.1088425,0.159105 0.1463532,-1.353053 0.3776432,-1.565192 0.2312899,-0.212139 0.7778924,-0.341405 0.7778924,-0.341405 0,0 0.4815484,-0.609562 0.7569412,-0.562315 0.3879756,0.06656 0.4414605,-0.689086 0.4414605,-0.689086 0,0 0.03754,-0.501725 0.1603871,-0.866532 0.1228481,-0.36481 1.0152037,-0.860225 1.8859425,-0.966294 0.8707389,-0.106073 -0.1821755,-0.430808 -0.3989999,-0.603353 -0.2168244,-0.172545 4e-7,-10e-6 4e-7,-10e-6 z"
         id="path46"
         sodipodi:nodetypes="cscsczsscsczszc" /></g><g
       id="g48"
       inkscape:label="right-wing"
       transform="matrix(-1,0,0,1,24.593785,0)"><path
         style="display:inline;fill:#ff6600;fill-opacity:1;stroke:#5e3421;stroke-width:0.473;stroke-dasharray:none;stroke-opacity:1"
         d="m 7.2021485,10.473633 c 0,0 -2.734375,-1.0009767 -2.1484375,-3.3935548 C 5.6396485,4.6875 3.8330078,2.7832031 3.8330078,2.7832031 c 0,0 -0.9277344,1.6845703 -2.2460938,3.2958985 -1.31835935,1.6113281 0.9765626,4.2968754 0.9765626,4.2968754 0,0 0.380967,1.083368 -1.153893,2.376033 -1.53485999,1.292666 0.1257509,5.059003 0.3210635,5.27873 0.1953125,0.219726 0.613103,-2.576638 1.0281421,-2.869607 0.415039,-0.292969 0.6949333,-0.10062 0.6949333,-0.10062 0,0 -0.035754,-0.558562 0.4281136,-0.705046 0.4638672,-0.146485 0.8599079,0.019 0.8599079,0.019 0,0 -0.1649746,-0.812096 0.055471,-1.315905 0.2204452,-0.503809 0.5250511,-1.242156 2.0875512,-1.38864 1.5625,-0.146484 0.3173828,-1.196289 0.3173823,-1.196289 z"
         id="path47"
         sodipodi:nodetypes="cscsczsscsczsc" /><path
         style="display:inline;fill:#b04600;fill-opacity:0.820926;stroke:#5e3421;stroke-width:0;stroke-dasharray:none;stroke-opacity:1"
         d="m 5.8312015,10.646632 c 0,0 -2.012074,-1.3107467 -1.685547,-3.0432173 0.326527,-1.7324708 -0.2896397,-3.2578605 -0.2896397,-3.2578605 0,0 -0.7855557,1.0733163 -1.5202416,2.2400825 -0.7346859,1.166766 0.9104227,3.9902833 0.9104227,3.9902833 0,0 -0.6666038,1.883101 -1.5219395,2.819123 -0.85533576,0.936023 -0.00317,2.686672 0.1056777,2.845776 0.1088425,0.159105 0.1463532,-1.353053 0.3776432,-1.565192 0.2312899,-0.212139 0.7778924,-0.341405 0.7778924,-0.341405 0,0 0.4815484,-0.609562 0.7569412,-0.562315 0.3879756,0.06656 0.4414605,-0.689086 0.4414605,-0.689086 0,0 0.03754,-0.501725 0.1603871,-0.866532 0.1228481,-0.36481 1.0152037,-0.860225 1.8859425,-0.966294 0.8707389,-0.106073 -0.1821755,-0.430808 -0.3989999,-0.603353 -0.2168244,-0.172545 4e-7,-10e-6 4e-7,-10e-6 z"
         id="path48"
         sodipodi:nodetypes="cscsczsscsczszc" /></g><circle
       cx="12.260818"
       cy="12.39128"
       r="5.0458913"
       style="fill:#ff6600;stroke:#5e3421;stroke-width:0.673;stroke-dasharray:none;stroke-opacity:1"
       id="circle48"
       inkscape:label="head" /><path
       class="st4"
       d="m 15.218625,16.112024 c 0,0 -1.456679,-1.535126 -1.431778,-1.444471 -0.378017,0.265042 -1.224555,1.020163 -2.489596,0.234104 0,0 -0.845802,1.56456 -1.250867,1.679351 0,0 0.993035,0.6161 2.590716,0.50347 1.597681,-0.112629 2.581525,-0.972454 2.581525,-0.972454 z"
       id="path49"
       style="clip-rule:evenodd;fill:#9e4a12;fill-opacity:0.851107;fill-rule:evenodd;stroke-width:0.00915399"
       sodipodi:nodetypes="cccczc"
       inkscape:label="bottom-shadow" /><path
       style="fill:#00bfbf;fill-opacity:1;stroke:#055256;stroke-width:0.354736;stroke-dasharray:none;stroke-opacity:0.704225"
       d="m 13.614255,12.414884 c 0.198417,1.266821 -0.310124,2.006324 -1.18955,2.006324 -0.879426,2e-6 -1.624876,-0.418738 -1.444286,-1.710613 0.18059,-1.291875 2.435418,-1.562533 2.633836,-0.295711 z"
       id="path50"
       sodipodi:nodetypes="zzzz"
       inkscape:label="eye" /><g
       id="g54"
       inkscape:label="blue-fire"><path
         class="st14"
         d="m 12.366008,11.867841 c 0.631272,0 1.142948,0.511852 1.142948,1.142949 0,0.631273 -0.511676,1.142948 -1.142948,1.142948 -0.631274,0 -1.142949,-0.511675 -1.142949,-1.142948 -1.94e-4,-0.631097 0.511675,-1.142949 1.142949,-1.142949"
         id="path51"
         style="clip-rule:evenodd;fill:#00ffff;fill-rule:evenodd;stroke-width:0.0177973" /><rect
         x="1415.7"
         y="631.03003"
         class="st19"
         width="454.32999"
         height="230.67999"
         clip-path="url(#SVGID_26_)"
         id="rect51"
         style="fill:url(#linearGradient55)"
         transform="matrix(0.01779739,0,0,0.01779739,-12.861081,-1.1534417)" /><path
         class="st20"
         d="m 19.363229,12.400871 c 0.07635,-0.02207 -0.01886,-0.916741 1.284972,-1.365771 1.303659,-0.449028 1.814267,-1.1942036 1.814267,-1.1942036 0,0 0.190609,0.9019706 -0.957321,1.4907086 -1.147933,0.588561 -2.119315,1.026375 -2.119315,1.026375 z"
         id="path52"
         style="clip-rule:evenodd;fill:#00c1d1;fill-opacity:1;fill-rule:evenodd;stroke-width:0.0177973" /><path
         class="st9"
         d="m 12.334685,12.353709 c 0.330318,0 0.597992,0.267851 0.597992,0.597992 0,0.33032 -0.267851,0.597992 -0.597992,0.597992 -0.33032,0 -0.597992,-0.267851 -0.597992,-0.597992 0,-0.330141 0.267672,-0.597992 0.597992,-0.597992"
         id="path53"
         style="clip-rule:evenodd;fill:#ffffff;fill-rule:evenodd;stroke-width:0.0177973" /><path
         class="st9"
         d="M 12.18216,12.875886 12.261,12.358337 c 0,0 0.451164,0.11515 0.671674,-0.0045 0.220509,-0.119599 0.640705,-0.163735 0.640705,-0.163735 0,0 -0.616145,0.443689 -0.554389,0.950202 0.06176,0.506514 0.920305,0.662775 1.286219,0.536235 0.365913,-0.126715 0.699259,-0.4371 1.032604,-0.579657 0.333345,-0.142559 1.217341,-0.0267 1.463835,-0.08596 0.246315,-0.05909 0.402223,-0.243824 0.402223,-0.243824 0,0 -0.03257,0.329607 -0.59052,0.358618 -0.557947,0.02901 -1.237452,0.04574 -1.557983,0.254503 -0.320531,0.208808 -0.19577,0.514567 -0.478215,0.58291 -0.282623,0.06852 -1.041682,-0.03934 -1.409554,-0.337261 -0.367872,-0.297928 -0.660284,-0.04022 -0.783085,-0.07795 -0.122803,-0.03791 -0.202357,-0.672029 -0.202357,-0.672029"
         id="path54"
         style="clip-rule:evenodd;fill:#ffffff;fill-rule:evenodd;stroke-width:0.0177973" /></g><path
       class="st9"
       d="m 10.209829,11.091324 0.0303,0.569136 c 0,0 1.377792,-3.0397544 5.034524,-2.6712278 0,0 -0.884402,-0.5136423 -2.091406,-0.3961142 -1.206845,0.1175256 -1.087084,0.3355159 -1.087084,0.2760362 0,-0.059478 -0.727807,-0.5155564 -0.727807,-0.5155564 0,0 1.405058,-0.4195265 3.045013,-0.1431707 0,0 -1.212039,-0.6432648 -2.18941,-0.5965415 -0.977371,0.046723 -2.145482,0.4778819 -2.8047909,0.9663587 -0.9367255,0.6940128 -1.452424,1.5350837 -1.735636,2.2962187 -0.283213,0.761133 -0.1007786,2.193482 -0.1007786,2.193482 0,0 0.4967618,-2.95679 3.2238015,-4.532163 l 1.087722,0.299956 c -1.58e-4,0 -1.089158,0.882808 -1.684445,2.253586"
       id="path55"
       style="clip-rule:evenodd;fill:#ffffff;fill-rule:evenodd;stroke-width:0.0159467"
       sodipodi:nodetypes="ccccsccssscccc"
       inkscape:label="light-flare" /></g></svg>
